<svg width="60" height="44" viewBox="0 0 60 44" fill="none" xmlns="http://www.w3.org/2000/svg">
<path d="M47.9064 41.9254C43.2382 44.1288 37.9759 44.3203 33.1831 42.4612C28.3902 40.6021 24.4242 36.8311 22.0865 31.9102C19.7489 26.9894 19.2139 21.2857 20.5898 15.9519C21.9656 10.6181 25.1497 6.05189 29.4985 3.17615C33.8472 0.300406 39.0364 -0.67043 44.0172 0.459846C48.9981 1.59012 53.3992 4.73722 56.331 9.26511C59.2629 13.793 60.5069 19.364 59.8116 24.8523C59.1164 30.3406 56.5337 35.3368 52.5855 38.8312L49.027 34.0638C51.8658 31.5513 53.7228 27.9589 54.2227 24.0128C54.7226 20.0666 53.8281 16.0609 51.7201 12.8053C49.612 9.54967 46.4475 7.28685 42.8662 6.47416C39.2849 5.66148 35.5538 6.35952 32.427 8.42723C29.3001 10.4949 27.0107 13.7781 26.0215 17.6132C25.0322 21.4483 25.4169 25.5494 27.0977 29.0876C28.7785 32.6257 31.6301 35.3371 35.0763 36.6739C38.5224 38.0106 42.3061 37.8729 45.6626 36.2886L47.9064 41.9254Z" fill="#5C949A"/>
<path d="M3.27925 11.0094C2.56735 11.1286 2.44574 12.0985 3.10345 12.4116L3.30433 12.5072C3.35717 12.5324 3.41247 12.5518 3.46927 12.5651L8.6324 13.7778C8.857 13.8305 9.05778 13.9591 9.20084 14.1418L11.9935 17.7087C12.7291 18.6482 14.1783 17.7739 13.681 16.6908L12.5834 14.3001C12.5224 14.1672 12.4908 14.0229 12.4908 13.8774L12.4908 13.3814L12.4908 13.1398C12.4908 12.9096 12.5698 12.6878 12.7146 12.5115L14.561 10.2633C15.3067 9.3553 14.1219 8.10987 13.1815 8.81309L9.62397 11.4731C9.42154 11.6244 9.16793 11.6917 8.91491 11.6611L3.48954 11.0046C3.41942 10.9962 3.34861 10.9977 3.27925 11.0094Z" fill="#5C949A"/>
<path d="M53.9003 27.3957C53.9003 27.3957 45.429 21.9381 39.5668 19.3845C29.4633 14.9834 12.2773 12.747 12.2773 12.747L12.0892 14.1882C12.0892 14.1882 20.9221 15.5706 26.3474 17.3384C38.7214 21.3703 52.4334 38.6331 52.4334 38.6331L53.9003 27.3957Z" fill="#5C949A"/>
</svg>
